<?xml version="1.0" encoding="UTF-8"?>
<svg id="Layer_1" data-name="Layer 1" xmlns="http://www.w3.org/2000/svg" viewBox="0 0 1080 1080">
  <defs>
    <style>
      .cls-1 {
        fill: #ba974d;
      }

      .cls-2 {
        font-family: Riope-Regular, Riope;
        font-size: 183px;
      }

      .cls-2, .cls-3 {
        fill: #41413c;
      }

      .cls-4 {
        letter-spacing: .19em;
      }

      .cls-5 {
        letter-spacing: .22em;
      }
    </style>
  </defs>
  <path class="cls-1" d="M261.39,358.28c-13.48-12.34-32.3-18.5-56.41-18.5h-74.25c-11.83,0-21.43,9.59-21.43,21.43v77.35h29.72v-69.06h65.96c14.47,0,25.91,2.76,34.31,8.21,8.37,5.45,12.55,15.19,12.55,29.17s-4.18,23.62-12.55,28.95c-8.4,5.36-19.84,8.03-34.31,8.03h-65.96v-.03H6.09v30.16h132.94v-.03h65.96c11.93,0,22.66-1.64,32.2-4.96,9.52-3.29,17.6-7.87,24.21-13.7,6.6-5.86,11.62-12.89,15.06-21.17,3.41-8.24,5.15-17.36,5.15-27.24,0-20.08-6.76-36.3-20.21-48.6Z"/>
  <rect class="cls-3" x="109.3" y="478.65" width="29.72" height="127.41"/>
  <path class="cls-1" d="M329.61,569.63h-28.97v-268.34h28.97v268.34Z"/>
  <path class="cls-1" d="M500.75,397.34h28.97v172.29h-28.97v-20.2c-8.14,7.62-17.41,13.6-27.82,17.92-10.42,4.32-21.73,6.48-33.92,6.48s-24.15-2.35-35.07-7.05c-10.93-4.7-20.52-11.18-28.78-19.44-8.26-8.25-14.74-17.85-19.44-28.78-4.7-10.92-7.05-22.61-7.05-35.07s2.35-24.21,7.05-35.26c4.7-11.05,11.18-20.64,19.44-28.78,8.26-8.13,17.85-14.61,28.78-19.44,10.92-4.82,22.62-7.24,35.07-7.24s23.5,2.23,33.92,6.67c10.42,4.45,19.69,10.36,27.82,17.73v-19.82ZM439.01,545.23c8.64,0,16.71-1.65,24.2-4.95,7.49-3.3,14.04-7.75,19.63-13.34,5.59-5.59,9.97-12.13,13.15-19.63,3.18-7.49,4.76-15.44,4.76-23.82s-1.59-16.71-4.76-24.21c-3.18-7.49-7.56-14.04-13.15-19.63-5.59-5.59-12.14-9.97-19.63-13.15-7.5-3.17-15.57-4.76-24.2-4.76s-16.33,1.59-23.82,4.76c-7.5,3.18-14.04,7.56-19.63,13.15-5.59,5.59-10.04,12.14-13.34,19.63-3.31,7.5-4.95,15.57-4.95,24.21s1.65,16.33,4.95,23.82c3.3,7.5,7.75,14.04,13.34,19.63,5.59,5.59,12.13,10.04,19.63,13.34,7.49,3.31,15.44,4.95,23.82,4.95Z"/>
  <path class="cls-1" d="M663.89,545.23v28.59h-19.06c-12.45,0-23.44-2.35-32.97-7.05-9.53-4.7-17.53-11.18-24.01-19.44-6.48-8.25-11.37-17.85-14.67-28.78-3.31-10.92-4.95-22.61-4.95-35.07v-57.56h-19.44v-28.59h19.44v-28.97h28.59v28.97h48.03v28.59h-48.03v57.56c0,8.38.89,16.33,2.67,23.82,1.77,7.5,4.57,14.04,8.38,19.63,3.81,5.59,8.77,10.04,14.86,13.34,6.1,3.31,13.47,4.95,22.11,4.95h19.06Z"/>
  <path class="cls-1" d="M711.54,483.48c0,8.38,1.65,16.33,4.95,23.82,3.3,7.5,7.88,14.04,13.72,19.63,5.84,5.59,12.89,10.04,21.15,13.34,8.25,3.31,17.34,4.95,27.25,4.95,11.44,0,22.23-2.1,32.4-6.29,10.16-4.19,18.16-9.97,24.01-17.34l20.2,20.58c-8.13,9.66-19.12,17.34-32.97,23.06-13.85,5.72-28.4,8.58-43.64,8.58-13.98,0-26.81-2.35-38.5-7.05-11.69-4.7-21.79-11.18-30.3-19.44-8.52-8.25-15.12-17.85-19.82-28.78-4.7-10.92-7.05-22.61-7.05-35.07s2.35-24.21,7.05-35.26c4.7-11.05,11.18-20.64,19.44-28.78,8.25-8.13,17.85-14.61,28.78-19.44,10.93-4.82,22.62-7.24,35.07-7.24s24.21,2.42,35.26,7.24c11.05,4.83,20.64,11.31,28.78,19.44,8.13,8.14,14.61,17.72,19.44,28.78,4.82,11.05,7.24,22.81,7.24,35.26h-152.47ZM827.79,454.51c-5.09-9.65-12.45-17.53-22.11-23.63-9.66-6.1-20.46-9.15-32.4-9.15s-22.74,3.05-32.4,9.15c-9.66,6.1-17.03,13.98-22.11,23.63h109.01Z"/>
  <path class="cls-1" d="M883.06,483.48c0-12.45,2.41-24.21,7.24-35.26,4.82-11.05,11.31-20.64,19.44-28.78,8.13-8.13,17.72-14.61,28.78-19.44,11.05-4.82,22.81-7.24,35.26-7.24s23.19,2.23,33.73,6.67c10.54,4.45,19.88,10.36,28.02,17.73v-115.88h28.59v268.34h-28.59v-20.2c-8.14,7.62-17.48,13.6-28.02,17.92-10.55,4.32-21.79,6.48-33.73,6.48s-24.21-2.35-35.26-7.05c-11.05-4.7-20.65-11.18-28.78-19.44-8.14-8.25-14.62-17.85-19.44-28.78-4.83-10.92-7.24-22.61-7.24-35.07ZM912.03,483.48c0,8.38,1.59,16.33,4.76,23.82,3.18,7.5,7.56,14.04,13.15,19.63,5.59,5.59,12.13,10.04,19.63,13.34,7.49,3.31,15.56,4.95,24.21,4.95s16.32-1.65,23.82-4.95c7.49-3.3,14.04-7.75,19.63-13.34,5.59-5.59,10.03-12.13,13.34-19.63,3.3-7.49,4.96-15.44,4.96-23.82s-1.66-16.71-4.96-24.21c-3.31-7.49-7.75-14.04-13.34-19.63-5.59-5.59-12.14-9.97-19.63-13.15-7.5-3.17-15.44-4.76-23.82-4.76s-16.71,1.59-24.21,4.76c-7.49,3.18-14.04,7.56-19.63,13.15-5.59,5.59-9.97,12.14-13.15,19.63-3.18,7.5-4.76,15.57-4.76,24.21Z"/>
  <text class="cls-2" transform="translate(295.42 729.13)"><tspan class="cls-5" x="0" y="0">pri</tspan><tspan class="cls-4" x="302.87" y="0">v</tspan><tspan class="cls-5" x="443.78" y="0">ate</tspan></text>
</svg>